<svg xmlns="http://www.w3.org/2000/svg" width="54.447" height="54.5" viewBox="0 0 54.447 54.5"><defs><style>.a{fill:#05a7c9;}.b{fill:#fff;}.c{fill:#001738;}</style></defs><g transform="translate(-0.25)"><path class="a" d="M214.272,32.663V26.7a3.2,3.2,0,0,0-3.2-3.2H179.75v9.163Z" transform="translate(-160.374 -20.996)"/><path class="a" d="M57.4,49.054H10.946a3.2,3.2,0,0,1-3.2-3.2V10.7a3.2,3.2,0,0,1,3.2-3.2H22.773A5.327,5.327,0,0,1,26.1,8.667l5.073,4.058A5.327,5.327,0,0,0,34.5,13.893H57.4a3.2,3.2,0,0,1,3.2,3.2V45.858A3.2,3.2,0,0,1,57.4,49.054Z" transform="translate(-6.701 -6.701)"/><path class="a" d="M57.4,340.7H10.946a3.2,3.2,0,0,1-3.2-3.2v3.2a3.2,3.2,0,0,0,3.2,3.2H57.4a3.2,3.2,0,0,0,3.2-3.2v-3.2A3.2,3.2,0,0,1,57.4,340.7Z" transform="translate(-6.701 -301.54)"/><path class="b" d="M168.576,191.634V178.12a2.621,2.621,0,0,0-5.241,0v7.154H159.14v1.531h-4.2v1.766h-4.195v10.717l2.8,6.713v2.1h15.383V206l4.2-6.713v-7.655Z" transform="translate(-134.463 -156.801)"/><path class="b" d="M172.724,451.5l.456,1.094v2.1h15.383v-2.1l.683-1.094Z" transform="translate(-154.097 -403.393)"/><path class="c" d="M398.417,165.708a2.4,2.4,0,0,1-2.4,2.4h-9.27v1.6h9.27a4,4,0,0,0,4-4V141.643h-1.6Z" transform="translate(-345.319 -126.551)"/><path d="M1.848,302.461v-7.756H.25v7.756a4,4,0,0,0,4,4h9.27v-1.6H4.246A2.4,2.4,0,0,1,1.848,302.461Z" transform="translate(0 -263.304)"/><path class="c" d="M154.793,436.161l-1.2-2.874-1.475.615,1.075,2.579v1.144H151.25v4h1.6v-2.4H163.77v-1.6h-8.977Z" transform="translate(-134.911 -387.121)"/><path class="c" d="M288.2,255.483h-1.6v8.411h4.549v6.626l-4.2,6.713v1.533h-3.21v1.6h5.061v2.4h1.6v-4h-1.851v-1.075l4.2-6.713V262.3H288.2Z" transform="translate(-253.293 -228.261)"/><path class="c" d="M161.077,171.419v4.3h1.6v-4.3a3.42,3.42,0,0,0-6.84,0v6.355h-4.195v1.531h-4.2v1.766H143.25v11.676l1.108,2.658,1.475-.615-.985-2.363V182.67h2.6v2.5h1.6V180.9h2.6v4.265h1.6v-5.8h2.6v5.8h1.6V171.419a1.822,1.822,0,0,1,3.643,0Z" transform="translate(-127.763 -150.1)"/><path class="c" d="M50.7,1.7H36.119V3.3H50.7a2.4,2.4,0,0,1,2.4,2.4V7.194a3.974,3.974,0,0,0-2.4-.8H27.8A4.545,4.545,0,0,1,24.973,5.4L22.351,3.3h12.17V1.7H20.353L19.9,1.343A6.149,6.149,0,0,0,16.073,0H4.246a4,4,0,0,0-4,4V29.8h1.6V4a2.4,2.4,0,0,1,2.4-2.4H16.073a4.544,4.544,0,0,1,2.829.992l5.073,4.058A6.149,6.149,0,0,0,27.8,7.991H50.7a2.4,2.4,0,0,1,2.4,2.4v3.105h1.6V5.7a4,4,0,0,0-4-4Z" transform="translate(0 0)"/></g></svg>