<svg xmlns="http://www.w3.org/2000/svg" width="52" height="52" viewBox="0 0 52 52"><defs><style>.a{fill:#05a7c9;}.b{fill:#001738;}.c{fill:#ecf0f1;}.d{fill:#b1bec6;}.e{fill:#fff;}</style></defs><path class="a" d="M58.8,18.934H8.533V11.351A2.817,2.817,0,0,1,11.35,8.534H55.983A2.817,2.817,0,0,1,58.8,11.351v7.583Z" transform="translate(-7.666 -7.667)"/><rect class="b" width="3.467" height="3.467" transform="translate(4.333 4.333)"/><rect class="b" width="3.467" height="3.467" transform="translate(11.267 4.333)"/><rect class="b" width="3.467" height="3.467" transform="translate(18.2 4.333)"/><rect class="c" width="3.467" height="3.467" transform="translate(38.134 26)"/><rect class="a" width="24.267" height="17.333" transform="translate(10.4 19.067)"/><g transform="translate(6.933 42.467)"><path class="d" d="M215.2,454h-9.533a.867.867,0,1,1,0-1.733H215.2a.867.867,0,1,1,0,1.733Z" transform="translate(-190.933 -448.8)"/><path class="d" d="M228.8,419.867h-6.067a.867.867,0,0,1,0-1.733H228.8a.867.867,0,0,1,0,1.733Z" transform="translate(-206.267 -418.134)"/><path class="d" d="M77.8,454H69.134a.867.867,0,1,1,0-1.733H77.8a.867.867,0,1,1,0,1.733Z" transform="translate(-68.267 -448.8)"/><path class="d" d="M91.4,419.867H86.2a.867.867,0,0,1,0-1.733h5.2a.867.867,0,0,1,0,1.733Z" transform="translate(-83.601 -418.134)"/><path class="d" d="M359.4,454h-8.667a.867.867,0,1,1,0-1.733H359.4a.867.867,0,1,1,0,1.733Z" transform="translate(-321.267 -448.8)"/><path class="d" d="M373,419.867h-5.2a.867.867,0,1,1,0-1.733H373a.867.867,0,1,1,0,1.733Z" transform="translate(-336.6 -418.134)"/></g><path class="e" d="M153.61,234.985l-4.333-4.333a.866.866,0,0,0-1.225,0l-3.721,3.721-1.987-1.987a.866.866,0,0,0-1.225,0l-4.333,4.333a.867.867,0,1,0,1.225,1.225l3.721-3.721,3.721,3.721a.867.867,0,0,0,1.225-1.225l-1.121-1.121,3.108-3.108,3.721,3.721a.867.867,0,1,0,1.225-1.225Z" transform="translate(-122.664 -206.997)"/><path class="b" d="M48.1,52H3.9A3.9,3.9,0,0,1,0,48.1V3.9A3.9,3.9,0,0,1,3.9,0H48.1A3.9,3.9,0,0,1,52,3.9V48.1A3.9,3.9,0,0,1,48.1,52ZM3.9,1.733A2.17,2.17,0,0,0,1.733,3.9V48.1A2.169,2.169,0,0,0,3.9,50.267H48.1A2.169,2.169,0,0,0,50.267,48.1V3.9A2.169,2.169,0,0,0,48.1,1.733H3.9Z"/><path class="b" d="M51.134,12.133H.867A.867.867,0,0,1,0,11.267V3.9A3.9,3.9,0,0,1,3.9,0H48.1A3.9,3.9,0,0,1,52,3.9v7.367A.866.866,0,0,1,51.134,12.133ZM1.733,10.4H50.267V3.9A2.169,2.169,0,0,0,48.1,1.733H3.9A2.17,2.17,0,0,0,1.733,3.9v6.5Z"/><path class="b" d="M96.387,171.067H62.946a3.216,3.216,0,0,1-3.213-3.213V148.28a3.216,3.216,0,0,1,3.213-3.213H96.387A3.216,3.216,0,0,1,99.6,148.28v19.575A3.216,3.216,0,0,1,96.387,171.067ZM62.946,146.8a1.481,1.481,0,0,0-1.479,1.479v19.575a1.481,1.481,0,0,0,1.479,1.479H96.387a1.481,1.481,0,0,0,1.479-1.479V148.28a1.481,1.481,0,0,0-1.479-1.479H62.946Z" transform="translate(-53.666 -130.334)"/><path class="b" d="M371.267,252.667H367.8a.866.866,0,0,1-.867-.867v-3.467a.866.866,0,0,1,.867-.867h3.467a.866.866,0,0,1,.867.867V251.8A.866.866,0,0,1,371.267,252.667Zm-2.6-1.733H370.4V249.2h-1.733Z" transform="translate(-329.667 -222.333)"/><path class="b" d="M119,198.267H94.734a.866.866,0,0,1-.867-.867V180.067a.867.867,0,0,1,.867-.867H119a.866.866,0,0,1,.867.867V197.4A.866.866,0,0,1,119,198.267Zm-23.4-1.733h22.533v-15.6H95.6Z" transform="translate(-84.334 -161)"/><path class="b" d="M215.2,454h-9.533a.867.867,0,1,1,0-1.733H215.2a.867.867,0,1,1,0,1.733Z" transform="translate(-184 -406.333)"/><path class="b" d="M228.8,419.867h-6.067a.867.867,0,0,1,0-1.733H228.8a.867.867,0,0,1,0,1.733Z" transform="translate(-199.334 -375.667)"/><path class="b" d="M77.8,454H69.134a.867.867,0,1,1,0-1.733H77.8a.867.867,0,1,1,0,1.733Z" transform="translate(-61.334 -406.333)"/><path class="b" d="M91.4,419.867H86.2a.867.867,0,0,1,0-1.733h5.2a.867.867,0,0,1,0,1.733Z" transform="translate(-76.667 -375.667)"/><path class="b" d="M359.4,454h-8.667a.867.867,0,1,1,0-1.733H359.4a.867.867,0,1,1,0,1.733Z" transform="translate(-314.333 -406.333)"/><path class="b" d="M373,419.867h-5.2a.867.867,0,1,1,0-1.733H373a.867.867,0,1,1,0,1.733Z" transform="translate(-329.667 -375.667)"/><path class="e" d="M137.4,253.531a.867.867,0,0,1-.613-1.479l4.333-4.333a.867.867,0,1,1,1.225,1.225l-4.333,4.333A.864.864,0,0,1,137.4,253.531Z" transform="translate(-122.665 -222.331)"/><path class="e" d="M184.4,253.531a.864.864,0,0,1-.613-.254l-4.333-4.333a.867.867,0,0,1,1.225-1.225l4.333,4.333a.867.867,0,0,1-.613,1.479Z" transform="translate(-160.997 -222.331)"/><path class="e" d="M205.664,236.464a.867.867,0,0,1-.613-1.479l4.333-4.333a.867.867,0,1,1,1.225,1.225l-4.333,4.333A.864.864,0,0,1,205.664,236.464Z" transform="translate(-183.997 -206.997)"/><path class="e" d="M252.665,236.464a.864.864,0,0,1-.613-.254l-4.333-4.333a.867.867,0,1,1,1.225-1.225l4.333,4.333a.867.867,0,0,1-.613,1.479Z" transform="translate(-222.331 -206.997)"/></svg>