<svg xmlns="http://www.w3.org/2000/svg" width="52" height="52" viewBox="0 0 52 52"><defs><style>.a{fill:#05a7c9;}.b{fill:#001738;}.c{fill:#fff;}</style></defs><g transform="translate(-1 -1)"><path class="a" d="M51.194,5H22.677A1.677,1.677,0,0,0,21,6.677V25.129a1.677,1.677,0,0,0,1.677,1.677h8.387l1.822-1.822a2.372,2.372,0,0,1,4.049,1.677c0,.049-.011.1-.014.144H51.194a1.677,1.677,0,0,0,1.677-1.677V6.677A1.677,1.677,0,0,0,51.194,5Z" transform="translate(-3.226 -0.645)"/><path class="b" d="M48.806,1H18.613a4.2,4.2,0,0,0-4.194,4.194V23.027A6.7,6.7,0,0,0,8.507,34.715,9.236,9.236,0,0,0,1,43.774V53H20.29V42.241a1.545,1.545,0,0,1,.449-1.084l1.576-1.576H47.129V37.065a4.2,4.2,0,0,0-4.194-4.194H42.1V29.516h6.71A4.2,4.2,0,0,0,53,25.323V5.194A4.2,4.2,0,0,0,48.806,1ZM7.71,29.516a5.032,5.032,0,1,1,5.032,5.032A5.037,5.037,0,0,1,7.71,29.516Zm11.742,0H23.3l-1.672,1.672A10.947,10.947,0,0,1,18.1,33.539,6.668,6.668,0,0,0,19.452,29.516Zm.1,10.455a3.189,3.189,0,0,0-.94,2.27v9.082H6.871V41.258H5.194V51.323H2.677V43.774a7.557,7.557,0,0,1,7.548-7.548h3.355l2.114-.294a12.667,12.667,0,0,0,7.116-3.559l7.441-7.441a1.534,1.534,0,0,1,2.17,2.169Zm25.9-2.906V37.9H23.992l3.355-3.355H42.935A2.519,2.519,0,0,1,45.452,37.065Zm-5.032-4.194H29.025l3.355-3.355h8.04Zm10.9-7.548a2.519,2.519,0,0,1-2.516,2.516H33.977a3.209,3.209,0,0,0-4.91-4.092l-4.092,4.092H19.231A6.728,6.728,0,0,0,16.1,23.714V5.194a2.519,2.519,0,0,1,2.516-2.516H48.806a2.519,2.519,0,0,1,2.516,2.516Z"/><path class="c" d="M38.548,9A7.548,7.548,0,1,0,46.1,16.548,7.557,7.557,0,0,0,38.548,9Zm4.811,4.194h-2.1a15.635,15.635,0,0,0-1.037-2.27A5.891,5.891,0,0,1,43.359,13.194Zm1.06,3.355a5.834,5.834,0,0,1-.247,1.677H41.725a8,8,0,0,0,0-3.355h2.447A5.834,5.834,0,0,1,44.419,16.548Zm-7.337,1.677a6.762,6.762,0,0,1,0-3.355h2.932a6.762,6.762,0,0,1,0,3.355ZM39.459,19.9a14.958,14.958,0,0,1-.911,1.812,15.081,15.081,0,0,1-.911-1.812Zm-6.782-3.355a5.834,5.834,0,0,1,.247-1.677h2.447a8,8,0,0,0,0,3.355H32.925A5.834,5.834,0,0,1,32.677,16.548Zm4.96-3.355a14.958,14.958,0,0,1,.911-1.812,15.081,15.081,0,0,1,.911,1.812Zm-.762-2.27a15.635,15.635,0,0,0-1.037,2.27h-2.1A5.891,5.891,0,0,1,36.876,10.923ZM33.738,19.9h2.1a15.635,15.635,0,0,0,1.037,2.27A5.891,5.891,0,0,1,33.738,19.9Zm6.483,2.27a15.635,15.635,0,0,0,1.037-2.27h2.1A5.891,5.891,0,0,1,40.221,22.174Z" transform="translate(-4.839 -1.29)"/><path class="b" d="M53,9h1.677v1.677H53Z" transform="translate(-8.387 -1.29)"/><path class="b" d="M53,13h1.677v1.677H53Z" transform="translate(-8.387 -1.935)"/><path class="b" d="M53,17h1.677v1.677H53Z" transform="translate(-8.387 -2.581)"/><path class="b" d="M25,25h1.677v1.677H25Z" transform="translate(-3.871 -3.871)"/><path class="b" d="M25,21h1.677v1.677H25Z" transform="translate(-3.871 -3.226)"/><path class="b" d="M25,17h1.677v1.677H25Z" transform="translate(-3.871 -2.581)"/></g></svg>