<svg xmlns="http://www.w3.org/2000/svg" width="15.4" height="15.414" viewBox="0 0 15.4 15.414"><defs><style>.a{fill:none;stroke:#617684;stroke-linecap:round;stroke-linejoin:round;stroke-miterlimit:10;stroke-width:1.4px;}</style></defs><g transform="translate(0.7 0.7)"><ellipse class="a" cx="1.909" cy="1.911" rx="1.909" ry="1.911" transform="translate(5.091 5.096)"/><path class="a" d="M11.709,8.918a1.052,1.052,0,0,0,.21,1.159l.038.038a1.274,1.274,0,1,1-1.8,1.8l-.038-.038a1.058,1.058,0,0,0-1.795.752v.108a1.273,1.273,0,1,1-2.545,0v-.057a1.051,1.051,0,0,0-.687-.962,1.049,1.049,0,0,0-1.158.21l-.038.038a1.274,1.274,0,0,1-1.8-1.8l.038-.038a1.06,1.06,0,0,0-.751-1.8H1.273a1.274,1.274,0,0,1,0-2.548H1.33A1.05,1.05,0,0,0,2.291,5.1a1.052,1.052,0,0,0-.21-1.159L2.043,3.9a1.274,1.274,0,1,1,1.8-1.8l.038.038a1.049,1.049,0,0,0,1.158.21h.051a1.051,1.051,0,0,0,.636-.962V1.274a1.273,1.273,0,1,1,2.545,0v.057a1.058,1.058,0,0,0,1.795.752l.038-.038a1.274,1.274,0,0,1,1.8,1.8l-.038.038a1.052,1.052,0,0,0-.21,1.159V5.1a1.05,1.05,0,0,0,.961.637h.108a1.274,1.274,0,0,1,0,2.548H12.67A1.05,1.05,0,0,0,11.709,8.918Z"/></g></svg>